{"title":"O Comprador de Fazendas (1974) Alberto Pieralisi.VHSRip.CM.mkv","uid":8540807,"size":1571031721,"categoryP":"video","categoryS":"movies","magnet":"?xt=urn:btih:b84b6e252cfcda8532b224158ed8a1c55b10baed&amp;dn=O+Comprador+de+Fazendas+%281974%29+Alberto+Pieralisi.VHSRip.CM.mkv&amp;tr=udp%3A%2F%2Ftracker.openbittorrent.com%3A80&amp;tr=udp%3A%2F%2Fopen.demonii.com%3A1337&amp;tr=udp%3A%2F%2Ftracker.coppersurfer.tk%3A6969&amp;tr=udp%3A%2F%2Fexodus.desync.com%3A6969","seeders":1,"leechers":0,"uploader":"lucmor77","files":1,"time":1370377686,"description":"Complete name                            : O Comprador de Fazendas (1974) Alberto Pieralisi.VHSRip.CM.mkv\nFormat                                   : Matroska\nFormat version                           : Version 1\nFile size                                : 1.46 GiB\nDuration                                 : 1h 32mn\nOverall bit rate                         : 2 264 Kbps\nEncoded date                             : UTC 2012-10-04 21:10:52\nWriting application                      : VirtualDubMod 1.5.4.1 (build 2128/release)\nWriting library                          : libebml-0.5.0 &amp; libmatroska-0.5.0\n\nVideo\nID                                       : 1\nFormat                                   : AVC\nFormat/Info                              : Advanced Video Codec\nFormat profile                           : &lt;a class=&quot;__cf_email__&quot; href=&quot;/cdn-cgi/l/email-protection&quot; data-cfemail=&quot;763b171f18363a435847&quot;&gt;[email&amp;#160;protected]&lt;/a&gt;&lt;script cf-hash='f9e31' type=&quot;text/javascript&quot;&gt;\n/* &lt;![CDATA[ */!function(){try{var t=&quot;currentScript&quot;in document?document.currentScript:function(){for(var t=document.getElementsByTagName(&quot;script&quot;),e=t.length;e--;)if(t[e].getAttribute(&quot;cf-hash&quot;))return t[e]}();if(t&amp;&amp;t.previousSibling){var e,r,n,i,c=t.previousSibling,a=c.getAttribute(&quot;data-cfemail&quot;);if(a){for(e=&quot;&quot;,r=parseInt(a.substr(0,2),16),n=2;a.length-n;n+=2)i=parseInt(a.substr(n,2),16)^r,e+=String.fromCharCode(i);e=document.createTextNode(e),c.parentNode.replaceChild(e,c)}}}catch(u){}}();/* ]]&gt; */&lt;/script&gt;\nFormat settings, CABAC                   : Yes\nFormat settings, ReFrames                : 2 frames\nCodec ID                                 : H264\nDuration                                 : 1h 32mn\nBit rate                                 : 2 004 Kbps\nWidth                                    : 640 pixels\nHeight                                   : 480 pixels\nDisplay aspect ratio                     : 4:3\nFrame rate                               : 23.976 fps\nColor space                              : YUV\nChroma subsampling                       : 4:2:0\nBit depth                                : 8 bits\nScan type                                : Progressive\nBits/(Pixel*Frame)                       : 0.272\nStream size                              : 1.27 GiB (87%)\nWriting library                          : x264 core 58 svn-736bm\n\nAudio\nID                                       : 2\nFormat                                   : AC-3\nFormat/Info                              : Audio Coding 3\nMode extension                           : CM (complete main)\nCodec ID                                 : A_AC3\nDuration                                 : 1h 32mn\nBit rate mode                            : Constant\nBit rate                                 : 256 Kbps\nChannel(s)                               : 2 channels\nChannel positions                        : Front: L R\nSampling rate                            : 48.0 KHz\nBit depth                                : 16 bits\nCompression mode                         : Lossy\nStream size                              : 169 MiB (11%)\nLanguage                                 : Portuguese","torrent":{"xt":"urn:btih:b84b6e252cfcda8532b224158ed8a1c55b10baed","amp;dn":"O+Comprador+de+Fazendas+%281974%29+Alberto+Pieralisi.VHSRip.CM.mkv","amp;tr":["udp%3A%2F%2Ftracker.openbittorrent.com%3A80","udp%3A%2F%2Fopen.demonii.com%3A1337","udp%3A%2F%2Ftracker.coppersurfer.tk%3A6969","udp%3A%2F%2Fexodus.desync.com%3A6969"],"infoHash":"b84b6e252cfcda8532b224158ed8a1c55b10baed","infoHashBuffer":{"type":"Buffer","data":[184,75,110,37,44,252,218,133,50,178,36,21,142,216,161,197,91,16,186,237]},"announce":[],"urlList":[]}}